<?xml version="1.0" encoding="UTF-8" standalone="no"?>
<!-- Created with Inkscape (http://www.inkscape.org/) -->
<svg
   xmlns:dc="http://purl.org/dc/elements/1.1/"
   xmlns:cc="http://web.resource.org/cc/"
   xmlns:rdf="http://www.w3.org/1999/02/22-rdf-syntax-ns#"
   xmlns:svg="http://www.w3.org/2000/svg"
   xmlns="http://www.w3.org/2000/svg"
   xmlns:sodipodi="http://sodipodi.sourceforge.net/DTD/sodipodi-0.dtd"
   xmlns:inkscape="http://www.inkscape.org/namespaces/inkscape"
   id="svg2"
   sodipodi:version="0.32"
   inkscape:version="0.45.1"
   width="850"
   height="419"
   version="1.0"
   sodipodi:docbase="/home/syntaxerror"
   sodipodi:docname="Atmospheric_Collision.svg"
   inkscape:output_extension="org.inkscape.output.svg.inkscape">
  <metadata
     id="metadata7">
    <rdf:RDF>
      <cc:Work
         rdf:about="">
        <dc:format>image/svg+xml</dc:format>
        <dc:type
           rdf:resource="http://purl.org/dc/dcmitype/StillImage" />
      </cc:Work>
    </rdf:RDF>
  </metadata>
  <defs
     id="defs5">
    <marker
       inkscape:stockid="Arrow1Lstart"
       orient="auto"
       refY="0.0"
       refX="0.0"
       id="Arrow1Lstart"
       style="overflow:visible">
      <path
         id="path6080"
         d="M 0.0,0.0 L 5.0,-5.0 L -12.5,0.0 L 5.0,5.0 L 0.0,0.0 z "
         style="fill-rule:evenodd;stroke:#000000;stroke-width:1.0pt;marker-start:none"
         transform="scale(0.8) translate(12.5,0)" />
    </marker>
    <marker
       inkscape:stockid="Arrow1Lend"
       orient="auto"
       refY="0.0"
       refX="0.0"
       id="Arrow1Lend"
       style="overflow:visible;">
      <path
         id="path6083"
         d="M 0.0,0.0 L 5.0,-5.0 L -12.5,0.0 L 5.0,5.0 L 0.0,0.0 z "
         style="fill-rule:evenodd;stroke:#000000;stroke-width:1.0pt;marker-start:none;"
         transform="scale(0.8) rotate(180) translate(12.5,0)" />
    </marker>
  </defs>
  <sodipodi:namedview
     inkscape:window-height="698"
     inkscape:window-width="1280"
     inkscape:pageshadow="2"
     inkscape:pageopacity="0.0"
     guidetolerance="10.0"
     gridtolerance="10.0"
     objecttolerance="10.0"
     borderopacity="1.0"
     bordercolor="#666666"
     pagecolor="#ffffff"
     id="base"
     inkscape:zoom="1.0980952"
     inkscape:cx="440.46955"
     inkscape:cy="206.13485"
     inkscape:window-x="0"
     inkscape:window-y="0"
     inkscape:current-layer="svg2" />
  <path
     style="font-size:22px"
     d="M 39.560547,81.109146 L 53.12793,81.109146 L 53.12793,82.935317 L 47.43457,82.935317 L 47.43457,97.147232 L 45.253906,97.147232 L 45.253906,82.935317 L 39.560547,82.935317 L 39.560547,81.109146 M 56.071289,86.501724 C 55.011388,86.501734 54.173498,86.917099 53.557617,87.747817 C 52.941728,88.571394 52.633786,89.702903 52.633789,91.142349 C 52.633786,92.581806 52.938147,93.716896 53.546875,94.547622 C 54.162756,95.371192 55.004226,95.782975 56.071289,95.782974 C 57.124016,95.782975 57.958325,95.367611 58.574219,94.53688 C 59.190094,93.706154 59.498037,92.574645 59.498047,91.142349 C 59.498037,89.717226 59.190094,88.589297 58.574219,87.75856 C 57.958325,86.920679 57.124016,86.501734 56.071289,86.501724 M 56.071289,84.825942 C 57.790031,84.825955 59.139964,85.384548 60.121094,86.501724 C 61.102202,87.618921 61.592761,89.165794 61.592773,91.142349 C 61.592761,93.111754 61.102202,94.658627 60.121094,95.782974 C 59.139964,96.900161 57.790031,97.458755 56.071289,97.458755 C 54.345373,97.458755 52.991858,96.900161 52.010742,95.782974 C 51.036782,94.658627 50.549803,93.111754 50.549805,91.142349 C 50.549803,89.165794 51.036782,87.618921 52.010742,86.501724 C 52.991858,85.384548 54.345373,84.825955 56.071289,84.825942 M 66.770508,95.342544 L 66.770508,101.7234 L 64.783203,101.7234 L 64.783203,85.115982 L 66.770508,85.115982 L 66.770508,86.942153 C 67.185868,86.226019 67.708654,85.696071 68.338867,85.35231 C 68.976231,85.00141 69.735345,84.825955 70.616211,84.825942 C 72.077139,84.825955 73.262359,85.406032 74.171875,86.566177 C 75.088529,87.726343 75.546862,89.251732 75.546875,91.142349 C 75.546862,93.032978 75.088529,94.558367 74.171875,95.718521 C 73.262359,96.878677 72.077139,97.458755 70.616211,97.458755 C 69.735345,97.458755 68.976231,97.28688 68.338867,96.94313 C 67.708654,96.592219 67.185868,96.058691 66.770508,95.342544 M 73.495117,91.142349 C 73.495106,89.68858 73.194326,88.549909 72.592773,87.726333 C 71.998363,86.895614 71.178377,86.48025 70.132812,86.480239 C 69.087233,86.48025 68.263666,86.895614 67.662109,87.726333 C 67.067704,88.549909 66.770504,89.68858 66.770508,91.142349 C 66.770504,92.596129 67.067704,93.738381 67.662109,94.569107 C 68.263666,95.392676 69.087233,95.804459 70.132812,95.804458 C 71.178377,95.804459 71.998363,95.392676 72.592773,94.569107 C 73.194326,93.738381 73.495106,92.596129 73.495117,91.142349 M 90.489258,86.501724 C 89.429356,86.501734 88.591467,86.917099 87.975586,87.747817 C 87.359697,88.571394 87.051755,89.702903 87.051758,91.142349 C 87.051755,92.581806 87.356116,93.716896 87.964844,94.547622 C 88.580724,95.371192 89.422195,95.782975 90.489258,95.782974 C 91.541984,95.782975 92.376293,95.367611 92.992188,94.53688 C 93.608063,93.706154 93.916005,92.574645 93.916016,91.142349 C 93.916005,89.717226 93.608063,88.589297 92.992188,87.75856 C 92.376293,86.920679 91.541984,86.501734 90.489258,86.501724 M 90.489258,84.825942 C 92.207999,84.825955 93.557933,85.384548 94.539062,86.501724 C 95.520171,87.618921 96.01073,89.165794 96.010742,91.142349 C 96.01073,93.111754 95.520171,94.658627 94.539062,95.782974 C 93.557933,96.900161 92.207999,97.458755 90.489258,97.458755 C 88.763341,97.458755 87.409827,96.900161 86.428711,95.782974 C 85.454751,94.658627 84.967772,93.111754 84.967773,91.142349 C 84.967772,89.165794 85.454751,87.618921 86.428711,86.501724 C 87.409827,85.384548 88.763341,84.825955 90.489258,84.825942 M 105.36719,80.432388 L 105.36719,82.075942 L 103.47656,82.075942 C 102.76757,82.075958 102.27343,82.219187 101.99414,82.50563 C 101.722,82.792103 101.58593,83.307727 101.58594,84.052505 L 101.58594,85.115982 L 104.84082,85.115982 L 104.84082,86.652114 L 101.58594,86.652114 L 101.58594,97.147232 L 99.598633,97.147232 L 99.598633,86.652114 L 97.708008,86.652114 L 97.708008,85.115982 L 99.598633,85.115982 L 99.598633,84.278091 C 99.59863,82.938912 99.910154,81.964955 100.5332,81.356216 C 101.15625,80.740347 102.14453,80.432405 103.49805,80.432388 L 105.36719,80.432388 M 115.96973,81.699966 L 115.96973,85.115982 L 120.04102,85.115982 L 120.04102,86.652114 L 115.96973,86.652114 L 115.96973,93.183364 C 115.96972,94.164487 116.10221,94.794695 116.36719,95.073989 C 116.63932,95.353288 117.18717,95.492936 118.01074,95.492935 L 120.04102,95.492935 L 120.04102,97.147232 L 118.01074,97.147232 C 116.48535,97.147232 115.43261,96.864354 114.85254,96.298599 C 114.27246,95.725683 113.98242,94.687273 113.98242,93.183364 L 113.98242,86.652114 L 112.53223,86.652114 L 112.53223,85.115982 L 113.98242,85.115982 L 113.98242,81.699966 L 115.96973,81.699966 M 132.65234,89.885513 L 132.65234,97.147232 L 130.67578,97.147232 L 130.67578,89.949966 C 130.67577,88.811302 130.45377,87.95909 130.00977,87.393325 C 129.56575,86.82758 128.89973,86.544703 128.01172,86.544692 C 126.94466,86.544703 126.10318,86.884872 125.4873,87.5652 C 124.87141,88.245548 124.56347,89.172956 124.56348,90.347427 L 124.56348,97.147232 L 122.57617,97.147232 L 122.57617,80.432388 L 124.56348,80.432388 L 124.56348,86.985122 C 125.03613,86.261826 125.59114,85.721136 126.22852,85.363052 C 126.87304,85.004991 127.61425,84.825955 128.45215,84.825942 C 129.8343,84.825955 130.87987,85.255642 131.58887,86.115005 C 132.29784,86.967229 132.65233,88.224063 132.65234,89.885513 M 146.90723,90.637466 L 146.90723,91.604263 L 137.81934,91.604263 C 137.90527,92.964944 138.31347,94.003354 139.04395,94.719497 C 139.78157,95.428483 140.80566,95.782975 142.11621,95.782974 C 142.87532,95.782975 143.60937,95.689876 144.31836,95.503677 C 145.03449,95.317481 145.74348,95.038184 146.44531,94.665786 L 146.44531,96.534927 C 145.73632,96.835708 145.00943,97.064875 144.26465,97.222427 C 143.51985,97.379979 142.76431,97.458755 141.99805,97.458755 C 140.07877,97.458755 138.55696,96.900161 137.43262,95.782974 C 136.31543,94.665789 135.75683,93.154723 135.75684,91.249771 C 135.75683,89.280377 136.28678,87.719181 137.34668,86.566177 C 138.41373,85.406032 139.8496,84.825955 141.6543,84.825942 C 143.27278,84.825955 144.5511,85.348741 145.48926,86.394302 C 146.43456,87.432723 146.90721,88.84711 146.90723,90.637466 M 144.93066,90.057388 C 144.91633,88.976016 144.61197,88.113061 144.01758,87.468521 C 143.43033,86.824 142.64973,86.501734 141.67578,86.501724 C 140.57291,86.501734 139.68847,86.813258 139.02246,87.436294 C 138.3636,88.05935 137.98405,88.936628 137.88379,90.06813 L 144.93066,90.057388 M 162.62305,91.09938 C 161.02604,91.099386 159.91959,91.282003 159.30371,91.647232 C 158.68782,92.012471 158.37988,92.635517 158.37988,93.516372 C 158.37988,94.218198 158.60905,94.776791 159.06738,95.192153 C 159.53287,95.600358 160.16308,95.804459 160.95801,95.804458 C 162.0537,95.804459 162.93098,95.417741 163.58984,94.644302 C 164.25585,93.863706 164.58886,92.828876 164.58887,91.53981 L 164.58887,91.09938 L 162.62305,91.09938 M 166.56543,90.282974 L 166.56543,97.147232 L 164.58887,97.147232 L 164.58887,95.32106 C 164.13769,96.05153 163.57551,96.592219 162.90234,96.94313 C 162.22916,97.28688 161.40559,97.458755 160.43164,97.458755 C 159.19987,97.458755 158.21875,97.115005 157.48828,96.427505 C 156.76497,95.732845 156.40332,94.805437 156.40332,93.645278 C 156.40332,92.291768 156.85449,91.271261 157.75684,90.583755 C 158.66634,89.896262 160.01985,89.552513 161.81738,89.552505 L 164.58887,89.552505 L 164.58887,89.359146 C 164.58886,88.449649 164.28808,87.747827 163.68652,87.253677 C 163.09211,86.752385 162.25422,86.501734 161.17285,86.501724 C 160.48535,86.501734 159.81575,86.584091 159.16406,86.748794 C 158.51237,86.913518 157.88574,87.160588 157.28418,87.490005 L 157.28418,85.663833 C 158.00748,85.384548 158.70931,85.176866 159.38965,85.040786 C 160.06998,84.897569 160.73242,84.825955 161.37695,84.825942 C 163.11718,84.825955 164.41698,85.277126 165.27637,86.179458 C 166.13573,87.081812 166.56542,88.449649 166.56543,90.282974 M 172.60254,81.699966 L 172.60254,85.115982 L 176.67383,85.115982 L 176.67383,86.652114 L 172.60254,86.652114 L 172.60254,93.183364 C 172.60254,94.164487 172.73502,94.794695 173,95.073989 C 173.27213,95.353288 173.81998,95.492936 174.64355,95.492935 L 176.67383,95.492935 L 176.67383,97.147232 L 174.64355,97.147232 C 173.11816,97.147232 172.06543,96.864354 171.48535,96.298599 C 170.90527,95.725683 170.61523,94.687273 170.61523,93.183364 L 170.61523,86.652114 L 169.16504,86.652114 L 169.16504,85.115982 L 170.61523,85.115982 L 170.61523,81.699966 L 172.60254,81.699966 M 188.65137,87.425552 C 189.1455,86.537542 189.73632,85.882269 190.42383,85.459732 C 191.11131,85.037218 191.92056,84.825955 192.85156,84.825942 C 194.1048,84.825955 195.0716,85.266384 195.75195,86.147232 C 196.43227,87.02094 196.77244,88.267032 196.77246,89.885513 L 196.77246,97.147232 L 194.78516,97.147232 L 194.78516,89.949966 C 194.78514,88.796979 194.58104,87.941186 194.17285,87.382583 C 193.76463,86.824 193.14159,86.544703 192.30371,86.544692 C 191.27961,86.544703 190.47036,86.884872 189.87598,87.5652 C 189.28156,88.245548 188.98436,89.172956 188.98438,90.347427 L 188.98438,97.147232 L 186.99707,97.147232 L 186.99707,89.949966 C 186.99706,88.789818 186.79296,87.934025 186.38477,87.382583 C 185.97655,86.824 185.34635,86.544703 184.49414,86.544692 C 183.48437,86.544703 182.68229,86.888453 182.08789,87.575942 C 181.49349,88.25629 181.19629,89.180117 181.19629,90.347427 L 181.19629,97.147232 L 179.20898,97.147232 L 179.20898,85.115982 L 181.19629,85.115982 L 181.19629,86.985122 C 181.64746,86.247503 182.18815,85.703233 182.81836,85.35231 C 183.44856,85.00141 184.19693,84.825955 185.06348,84.825942 C 185.93717,84.825955 186.67838,85.04796 187.28711,85.491958 C 187.90298,85.93598 188.35774,86.58051 188.65137,87.425552 M 205.3877,86.501724 C 204.32779,86.501734 203.4899,86.917099 202.87402,87.747817 C 202.25813,88.571394 201.95019,89.702903 201.9502,91.142349 C 201.95019,92.581806 202.25455,93.716896 202.86328,94.547622 C 203.47916,95.371192 204.32063,95.782975 205.3877,95.782974 C 206.44042,95.782975 207.27473,95.367611 207.89062,94.53688 C 208.5065,93.706154 208.81444,92.574645 208.81445,91.142349 C 208.81444,89.717226 208.5065,88.589297 207.89062,87.75856 C 207.27473,86.920679 206.44042,86.501734 205.3877,86.501724 M 205.3877,84.825942 C 207.10644,84.825955 208.45637,85.384548 209.4375,86.501724 C 210.41861,87.618921 210.90917,89.165794 210.90918,91.142349 C 210.90917,93.111754 210.41861,94.658627 209.4375,95.782974 C 208.45637,96.900161 207.10644,97.458755 205.3877,97.458755 C 203.66178,97.458755 202.30826,96.900161 201.32715,95.782974 C 200.35319,94.658627 199.86621,93.111754 199.86621,91.142349 C 199.86621,89.165794 200.35319,87.618921 201.32715,86.501724 C 202.30826,85.384548 203.66178,84.825955 205.3877,84.825942 M 221.84473,85.470474 L 221.84473,87.339614 C 221.28612,87.053166 220.70605,86.838323 220.10449,86.695083 C 219.50292,86.551865 218.87988,86.48025 218.23535,86.480239 C 217.25423,86.48025 216.5166,86.63064 216.02246,86.931411 C 215.53548,87.232202 215.29199,87.683374 215.29199,88.284927 C 215.29199,88.743269 215.46744,89.104922 215.81836,89.369888 C 216.16927,89.627708 216.87467,89.874778 217.93457,90.111099 L 218.61133,90.261489 C 220.01497,90.562277 221.01041,90.988384 221.59766,91.53981 C 222.19205,92.084086 222.48925,92.84678 222.48926,93.827896 C 222.48925,94.945085 222.04524,95.829525 221.15723,96.481216 C 220.27636,97.132909 219.06249,97.458755 217.51562,97.458755 C 216.87109,97.458755 216.19791,97.394302 215.49609,97.265396 C 214.80143,97.143651 214.06738,96.957453 213.29395,96.706802 L 213.29395,94.665786 C 214.02441,95.045346 214.74414,95.331804 215.45312,95.525161 C 216.16211,95.711361 216.86393,95.804459 217.55859,95.804458 C 218.48958,95.804459 219.20572,95.646908 219.70703,95.331802 C 220.20833,95.009538 220.45898,94.558367 220.45898,93.978286 C 220.45898,93.441181 220.27636,93.029397 219.91113,92.742935 C 219.55305,92.456481 218.76171,92.180765 217.53711,91.915786 L 216.84961,91.754653 C 215.625,91.496847 214.74056,91.102967 214.19629,90.573013 C 213.65202,90.035911 213.37988,89.301862 213.37988,88.370864 C 213.37988,87.239364 213.78092,86.365667 214.58301,85.749771 C 215.38509,85.133897 216.52376,84.825955 217.99902,84.825942 C 218.72949,84.825955 219.41698,84.879666 220.06152,84.987075 C 220.70605,85.094509 221.30045,85.255642 221.84473,85.470474 M 227.55957,95.342544 L 227.55957,101.7234 L 225.57227,101.7234 L 225.57227,85.115982 L 227.55957,85.115982 L 227.55957,86.942153 C 227.97493,86.226019 228.49772,85.696071 229.12793,85.35231 C 229.76529,85.00141 230.52441,84.825955 231.40527,84.825942 C 232.8662,84.825955 234.05142,85.406032 234.96094,86.566177 C 235.87759,87.726343 236.33592,89.251732 236.33594,91.142349 C 236.33592,93.032978 235.87759,94.558367 234.96094,95.718521 C 234.05142,96.878677 232.8662,97.458755 231.40527,97.458755 C 230.52441,97.458755 229.76529,97.28688 229.12793,96.94313 C 228.49772,96.592219 227.97493,96.058691 227.55957,95.342544 M 234.28418,91.142349 C 234.28417,89.68858 233.98339,88.549909 233.38184,87.726333 C 232.78743,86.895614 231.96744,86.48025 230.92188,86.480239 C 229.8763,86.48025 229.05273,86.895614 228.45117,87.726333 C 227.85677,88.549909 227.55957,89.68858 227.55957,91.142349 C 227.55957,92.596129 227.85677,93.738381 228.45117,94.569107 C 229.05273,95.392676 229.8763,95.804459 230.92188,95.804458 C 231.96744,95.804459 232.78743,95.392676 233.38184,94.569107 C 233.98339,93.738381 234.28417,92.596129 234.28418,91.142349 M 249.61328,89.885513 L 249.61328,97.147232 L 247.63672,97.147232 L 247.63672,89.949966 C 247.63671,88.811302 247.4147,87.95909 246.9707,87.393325 C 246.52668,86.82758 245.86067,86.544703 244.97266,86.544692 C 243.90559,86.544703 243.06412,86.884872 242.44824,87.5652 C 241.83235,88.245548 241.52441,89.172956 241.52441,90.347427 L 241.52441,97.147232 L 239.53711,97.147232 L 239.53711,80.432388 L 241.52441,80.432388 L 241.52441,86.985122 C 241.99707,86.261826 242.55208,85.721136 243.18945,85.363052 C 243.83398,85.004991 244.57519,84.825955 245.41309,84.825942 C 246.79524,84.825955 247.84081,85.255642 248.5498,86.115005 C 249.25878,86.967229 249.61327,88.224063 249.61328,89.885513 M 263.86816,90.637466 L 263.86816,91.604263 L 254.78027,91.604263 C 254.86621,92.964944 255.27441,94.003354 256.00488,94.719497 C 256.74251,95.428483 257.7666,95.782975 259.07715,95.782974 C 259.83625,95.782975 260.5703,95.689876 261.2793,95.503677 C 261.99543,95.317481 262.70442,95.038184 263.40625,94.665786 L 263.40625,96.534927 C 262.69725,96.835708 261.97037,97.064875 261.22559,97.222427 C 260.48079,97.379979 259.72525,97.458755 258.95898,97.458755 C 257.03971,97.458755 255.5179,96.900161 254.39355,95.782974 C 253.27637,94.665789 252.71777,93.154723 252.71777,91.249771 C 252.71777,89.280377 253.24772,87.719181 254.30762,86.566177 C 255.37467,85.406032 256.81054,84.825955 258.61523,84.825942 C 260.23372,84.825955 261.51203,85.348741 262.4502,86.394302 C 263.3955,87.432723 263.86815,88.84711 263.86816,90.637466 M 261.8916,90.057388 C 261.87727,88.976016 261.57291,88.113061 260.97852,87.468521 C 260.39127,86.824 259.61067,86.501734 258.63672,86.501724 C 257.53385,86.501734 256.64941,86.813258 255.9834,87.436294 C 255.32454,88.05935 254.94498,88.936628 254.84473,90.06813 L 261.8916,90.057388 M 274.08398,86.963638 C 273.86197,86.834742 273.61848,86.741643 273.35352,86.684341 C 273.0957,86.619898 272.80924,86.587672 272.49414,86.587661 C 271.37695,86.587672 270.51757,86.952906 269.91602,87.683364 C 269.32161,88.40668 269.02441,89.448672 269.02441,90.809341 L 269.02441,97.147232 L 267.03711,97.147232 L 267.03711,85.115982 L 269.02441,85.115982 L 269.02441,86.985122 C 269.43977,86.254664 269.98046,85.713975 270.64648,85.363052 C 271.31249,85.004991 272.12174,84.825955 273.07422,84.825942 C 273.21028,84.825955 273.36067,84.836697 273.52539,84.858169 C 273.6901,84.872504 273.87271,84.897569 274.07324,84.933364 L 274.08398,86.963638 M 285.99707,90.637466 L 285.99707,91.604263 L 276.90918,91.604263 C 276.99511,92.964944 277.40332,94.003354 278.13379,94.719497 C 278.87141,95.428483 279.8955,95.782975 281.20605,95.782974 C 281.96516,95.782975 282.69921,95.689876 283.4082,95.503677 C 284.12434,95.317481 284.83332,95.038184 285.53516,94.665786 L 285.53516,96.534927 C 284.82616,96.835708 284.09927,97.064875 283.35449,97.222427 C 282.60969,97.379979 281.85416,97.458755 281.08789,97.458755 C 279.16861,97.458755 277.64681,96.900161 276.52246,95.782974 C 275.40527,94.665789 274.84668,93.154723 274.84668,91.249771 C 274.84668,89.280377 275.37663,87.719181 276.43652,86.566177 C 277.50358,85.406032 278.93945,84.825955 280.74414,84.825942 C 282.36262,84.825955 283.64094,85.348741 284.5791,86.394302 C 285.5244,87.432723 285.99706,88.84711 285.99707,90.637466 M 284.02051,90.057388 C 284.00617,88.976016 283.70181,88.113061 283.10742,87.468521 C 282.52017,86.824 281.73958,86.501734 280.76562,86.501724 C 279.66275,86.501734 278.77832,86.813258 278.1123,87.436294 C 277.45345,88.05935 277.07389,88.936628 276.97363,90.06813 L 284.02051,90.057388"
     id="flowRoot2161" />
  <path
     style="fill:none;fill-opacity:0.75;fill-rule:evenodd;stroke:#000000;stroke-width:1px;stroke-linecap:butt;stroke-linejoin:miter;stroke-opacity:1"
     d="M 35.516045,53.822202 L 792.28101,53.822202"
     id="path2169" />
  <path
     style="fill:none;fill-opacity:0.75;fill-rule:evenodd;stroke:#000000;stroke-width:7.19999981;stroke-linecap:butt;stroke-linejoin:miter;stroke-miterlimit:4;stroke-opacity:1"
     d="M 406.32576,17.181818 L 406.32576,163.35606"
     id="path2171" />
  <path
     style="fill:#000000;fill-opacity:1;fill-rule:evenodd;stroke:#000000;stroke-width:1px;stroke-linecap:butt;stroke-linejoin:miter;stroke-opacity:1"
     d="M 397.47159,96.064393 L 414.85796,96.064393 L 409.38447,107.97727 L 403.58902,108.13825 L 397.47159,96.064393 z "
     id="path3144" />
  <path
     transform="matrix(2.6796891,0,0,2.6796891,-630.80585,-154.85086)"
     style=""
     d="M 375.54883,95.757865 L 375.54883,99.238334 L 374.46484,99.238334 L 374.46484,90.17974 L 375.54883,90.17974 L 375.54883,91.175834 C 375.77539,90.785215 376.06054,90.496152 376.4043,90.308646 C 376.75195,90.117247 377.16601,90.021544 377.64648,90.021537 C 378.44335,90.021544 379.08984,90.337949 379.58594,90.970756 C 380.08593,91.603573 380.33593,92.435604 380.33594,93.466849 C 380.33593,94.498102 380.08593,95.330132 379.58594,95.962943 C 379.08984,96.595756 378.44335,96.912162 377.64648,96.912162 C 377.16601,96.912162 376.75195,96.818412 376.4043,96.630912 C 376.06054,96.439506 375.77539,96.148491 375.54883,95.757865 M 379.2168,93.466849 C 379.21679,92.673885 379.05273,92.052791 378.72461,91.603568 C 378.40039,91.150449 377.95312,90.923886 377.38281,90.923881 C 376.8125,90.923886 376.36328,91.150449 376.03516,91.603568 C 375.71094,92.052791 375.54883,92.673885 375.54883,93.466849 C 375.54883,94.259821 375.71094,94.882867 376.03516,95.33599 C 376.36328,95.78521 376.8125,96.009819 377.38281,96.009818 C 377.95312,96.009819 378.40039,95.78521 378.72461,95.33599 C 379.05273,94.882867 379.21679,94.259821 379.2168,93.466849"
     id="flowRoot4116" />
  <path
     style="fill:#ffffff;fill-opacity:1;stroke:#000000;stroke-width:1;stroke-linecap:round;stroke-linejoin:miter;stroke-miterlimit:4;stroke-dashoffset:0;stroke-opacity:1"
     d="M 522.72333,91.159592 L 794.10233,91.159592 L 794.10233,164.01302 L 522.72333,164.01302 L 522.72333,91.159592 z "
     id="rect4124" />
  <path
     transform="matrix(1.7675932,0,0,1.7675932,-407.66715,-209.05159)"
     style="font-family:DejaVu Sans"
     d="M 535.11133,176.40435 L 535.11133,179.69146 L 536.59961,179.69146 C 537.15039,179.69146 537.57617,179.54889 537.87695,179.26372 C 538.17773,178.97857 538.32812,178.57232 538.32812,178.04497 C 538.32812,177.52154 538.17773,177.11725 537.87695,176.83208 C 537.57617,176.54694 537.15039,176.40436 536.59961,176.40435 L 535.11133,176.40435 M 533.92773,175.43169 L 536.59961,175.43169 C 537.58007,175.4317 538.32031,175.65436 538.82031,176.09966 C 539.32421,176.54108 539.57617,177.18951 539.57617,178.04497 C 539.57617,178.90826 539.32421,179.5606 538.82031,180.00201 C 538.32031,180.44342 537.58007,180.66412 536.59961,180.66411 L 535.11133,180.66411 L 535.11133,184.17974 L 533.92773,184.17974 L 533.92773,175.43169 M 544.71484,178.62505 C 544.59375,178.55475 544.46093,178.50396 544.31641,178.47271 C 544.17578,178.43756 544.01953,178.41998 543.84766,178.41997 C 543.23828,178.41998 542.76953,178.6192 542.44141,179.01763 C 542.11719,179.41217 541.95508,179.98053 541.95508,180.72271 L 541.95508,184.17974 L 540.87109,184.17974 L 540.87109,177.61724 L 541.95508,177.61724 L 541.95508,178.63677 C 542.18164,178.23834 542.47656,177.94342 542.83984,177.75201 C 543.20312,177.5567 543.64453,177.45904 544.16406,177.45904 C 544.23828,177.45904 544.32031,177.4649 544.41016,177.47661 C 544.5,177.48443 544.5996,177.49811 544.70898,177.51763 L 544.71484,178.62505 M 548.13672,178.3731 C 547.55859,178.37311 547.10156,178.59967 546.76562,179.05279 C 546.42969,179.50201 546.26172,180.1192 546.26172,180.90435 C 546.26172,181.68951 546.42773,182.30865 546.75977,182.76177 C 547.0957,183.21099 547.55468,183.4356 548.13672,183.4356 C 548.71093,183.4356 549.16601,183.20904 549.50195,182.75591 C 549.83789,182.30279 550.00585,181.6856 550.00586,180.90435 C 550.00585,180.12701 549.83789,179.51178 549.50195,179.05865 C 549.16601,178.60162 548.71093,178.37311 548.13672,178.3731 M 548.13672,177.45904 C 549.07421,177.45904 549.81054,177.76373 550.3457,178.3731 C 550.88085,178.98248 551.14843,179.82623 551.14844,180.90435 C 551.14843,181.97857 550.88085,182.82232 550.3457,183.4356 C 549.81054,184.04497 549.07421,184.34966 548.13672,184.34966 C 547.19531,184.34966 546.45703,184.04497 545.92188,183.4356 C 545.39062,182.82232 545.125,181.97857 545.125,180.90435 C 545.125,179.82623 545.39062,178.98248 545.92188,178.3731 C 546.45703,177.76373 547.19531,177.45904 548.13672,177.45904 M 553.99609,175.75396 L 553.99609,177.61724 L 556.2168,177.61724 L 556.2168,178.45513 L 553.99609,178.45513 L 553.99609,182.01763 C 553.99609,182.55279 554.06836,182.89654 554.21289,183.04888 C 554.36133,183.20123 554.66015,183.2774 555.10938,183.2774 L 556.2168,183.2774 L 556.2168,184.17974 L 555.10938,184.17974 C 554.27734,184.17974 553.70312,184.02544 553.38672,183.71685 C 553.07031,183.40435 552.91211,182.83794 552.91211,182.01763 L 552.91211,178.45513 L 552.12109,178.45513 L 552.12109,177.61724 L 552.91211,177.61724 L 552.91211,175.75396 L 553.99609,175.75396 M 560.18359,178.3731 C 559.60547,178.37311 559.14843,178.59967 558.8125,179.05279 C 558.47656,179.50201 558.30859,180.1192 558.30859,180.90435 C 558.30859,181.68951 558.47461,182.30865 558.80664,182.76177 C 559.14258,183.21099 559.60156,183.4356 560.18359,183.4356 C 560.75781,183.4356 561.21289,183.20904 561.54883,182.75591 C 561.88476,182.30279 562.05273,181.6856 562.05273,180.90435 C 562.05273,180.12701 561.88476,179.51178 561.54883,179.05865 C 561.21289,178.60162 560.75781,178.37311 560.18359,178.3731 M 560.18359,177.45904 C 561.12109,177.45904 561.85742,177.76373 562.39258,178.3731 C 562.92773,178.98248 563.19531,179.82623 563.19531,180.90435 C 563.19531,181.97857 562.92773,182.82232 562.39258,183.4356 C 561.85742,184.04497 561.12109,184.34966 560.18359,184.34966 C 559.24218,184.34966 558.5039,184.04497 557.96875,183.4356 C 557.4375,182.82232 557.17187,181.97857 557.17188,180.90435 C 557.17187,179.82623 557.4375,178.98248 557.96875,178.3731 C 558.5039,177.76373 559.24218,177.45904 560.18359,177.45904 M 570.43164,180.2188 L 570.43164,184.17974 L 569.35352,184.17974 L 569.35352,180.25396 C 569.35351,179.63287 569.23242,179.16803 568.99023,178.85943 C 568.74804,178.55084 568.38476,178.39654 567.90039,178.39654 C 567.31836,178.39654 566.85937,178.58209 566.52344,178.95318 C 566.1875,179.32428 566.01953,179.83013 566.01953,180.47076 L 566.01953,184.17974 L 564.93555,184.17974 L 564.93555,177.61724 L 566.01953,177.61724 L 566.01953,178.63677 C 566.27734,178.24225 566.58008,177.94732 566.92773,177.75201 C 567.27929,177.5567 567.68359,177.45904 568.14062,177.45904 C 568.89453,177.45904 569.46484,177.69342 569.85156,178.16216 C 570.23827,178.62701 570.43163,179.31256 570.43164,180.2188 M 581.13672,177.86919 L 581.13672,178.87701 C 580.83203,178.70904 580.52539,178.58404 580.2168,178.50201 C 579.9121,178.41607 579.60351,178.37311 579.29102,178.3731 C 578.59179,178.37311 578.04883,178.59576 577.66211,179.04107 C 577.27539,179.48248 577.08203,180.10357 577.08203,180.90435 C 577.08203,181.70513 577.27539,182.32818 577.66211,182.77349 C 578.04883,183.2149 578.59179,183.4356 579.29102,183.4356 C 579.60351,183.4356 579.9121,183.39458 580.2168,183.31255 C 580.52539,183.22662 580.83203,183.09966 581.13672,182.93169 L 581.13672,183.92779 C 580.83593,184.06841 580.52343,184.17388 580.19922,184.24419 C 579.8789,184.31451 579.53711,184.34966 579.17383,184.34966 C 578.18554,184.34966 577.40039,184.03912 576.81836,183.41802 C 576.23633,182.79693 575.94531,181.95904 575.94531,180.90435 C 575.94531,179.83404 576.23828,178.99225 576.82422,178.37896 C 577.41406,177.76568 578.2207,177.45904 579.24414,177.45904 C 579.57617,177.45904 579.90039,177.4942 580.2168,177.56451 C 580.5332,177.63092 580.83984,177.73248 581.13672,177.86919 M 585.56641,178.3731 C 584.98828,178.37311 584.53125,178.59967 584.19531,179.05279 C 583.85937,179.50201 583.6914,180.1192 583.69141,180.90435 C 583.6914,181.68951 583.85742,182.30865 584.18945,182.76177 C 584.52539,183.21099 584.98437,183.4356 585.56641,183.4356 C 586.14062,183.4356 586.5957,183.20904 586.93164,182.75591 C 587.26757,182.30279 587.43554,181.6856 587.43555,180.90435 C 587.43554,180.12701 587.26757,179.51178 586.93164,179.05865 C 586.5957,178.60162 586.14062,178.37311 585.56641,178.3731 M 585.56641,177.45904 C 586.5039,177.45904 587.24023,177.76373 587.77539,178.3731 C 588.31054,178.98248 588.57812,179.82623 588.57812,180.90435 C 588.57812,181.97857 588.31054,182.82232 587.77539,183.4356 C 587.24023,184.04497 586.5039,184.34966 585.56641,184.34966 C 584.625,184.34966 583.88672,184.04497 583.35156,183.4356 C 582.82031,182.82232 582.55469,181.97857 582.55469,180.90435 C 582.55469,179.82623 582.82031,178.98248 583.35156,178.3731 C 583.88672,177.76373 584.625,177.45904 585.56641,177.45904 M 590.35938,175.06255 L 591.4375,175.06255 L 591.4375,184.17974 L 590.35938,184.17974 L 590.35938,175.06255 M 593.6875,175.06255 L 594.76562,175.06255 L 594.76562,184.17974 L 593.6875,184.17974 L 593.6875,175.06255 M 597.01562,177.61724 L 598.09375,177.61724 L 598.09375,184.17974 L 597.01562,184.17974 L 597.01562,177.61724 M 597.01562,175.06255 L 598.09375,175.06255 L 598.09375,176.42779 L 597.01562,176.42779 L 597.01562,175.06255 M 604.66211,178.61333 L 604.66211,175.06255 L 605.74023,175.06255 L 605.74023,184.17974 L 604.66211,184.17974 L 604.66211,183.19536 C 604.43554,183.58599 604.14843,183.87701 603.80078,184.06841 C 603.45703,184.25591 603.04296,184.34966 602.55859,184.34966 C 601.76562,184.34966 601.11914,184.03326 600.61914,183.40044 C 600.12305,182.76763 599.875,181.9356 599.875,180.90435 C 599.875,179.8731 600.12305,179.04107 600.61914,178.40826 C 601.11914,177.77545 601.76562,177.45904 602.55859,177.45904 C 603.04296,177.45904 603.45703,177.55475 603.80078,177.74615 C 604.14843,177.93365 604.43554,178.22271 604.66211,178.61333 M 600.98828,180.90435 C 600.98828,181.69732 601.15039,182.32037 601.47461,182.77349 C 601.80273,183.22271 602.25195,183.44732 602.82227,183.44732 C 603.39257,183.44732 603.84179,183.22271 604.16992,182.77349 C 604.49804,182.32037 604.6621,181.69732 604.66211,180.90435 C 604.6621,180.11138 604.49804,179.49029 604.16992,179.04107 C 603.84179,178.58795 603.39257,178.36139 602.82227,178.36138 C 602.25195,178.36139 601.80273,178.58795 601.47461,179.04107 C 601.15039,179.49029 600.98828,180.11138 600.98828,180.90435 M 613.57422,180.62896 L 613.57422,181.1563 L 608.61719,181.1563 C 608.66406,181.89849 608.88672,182.4649 609.28516,182.85552 C 609.6875,183.24224 610.24609,183.4356 610.96094,183.4356 C 611.375,183.4356 611.77539,183.38482 612.16211,183.28326 C 612.55273,183.18169 612.93945,183.02935 613.32227,182.82622 L 613.32227,183.84576 C 612.93554,184.00982 612.53906,184.13482 612.13281,184.22076 C 611.72656,184.30669 611.31445,184.34966 610.89648,184.34966 C 609.84961,184.34966 609.01953,184.04497 608.40625,183.4356 C 607.79687,182.82623 607.49219,182.00201 607.49219,180.96294 C 607.49219,179.88873 607.78125,179.03717 608.35938,178.40826 C 608.9414,177.77545 609.72461,177.45904 610.70898,177.45904 C 611.59179,177.45904 612.28906,177.7442 612.80078,178.31451 C 613.3164,178.88092 613.57421,179.6524 613.57422,180.62896 M 612.49609,180.31255 C 612.48828,179.72271 612.32226,179.25201 611.99805,178.90044 C 611.67773,178.54889 611.25195,178.37311 610.7207,178.3731 C 610.11914,178.37311 609.63672,178.54303 609.27344,178.88286 C 608.91406,179.22271 608.70703,179.70123 608.65234,180.31841 L 612.49609,180.31255 M 619.52734,177.8106 L 619.52734,178.83013 C 619.22265,178.67389 618.90625,178.5567 618.57812,178.47857 C 618.25,178.40045 617.91015,178.36139 617.55859,178.36138 C 617.02343,178.36139 616.62109,178.44342 616.35156,178.60747 C 616.08594,178.77154 615.95312,179.01764 615.95312,179.34576 C 615.95312,179.59576 616.04883,179.79303 616.24023,179.93755 C 616.43164,180.07818 616.8164,180.21295 617.39453,180.34185 L 617.76367,180.42388 C 618.52929,180.58795 619.07226,180.82037 619.39258,181.12115 C 619.71679,181.41802 619.8789,181.83404 619.87891,182.36919 C 619.8789,182.97857 619.63671,183.46099 619.15234,183.81646 C 618.67187,184.17193 618.00976,184.34966 617.16602,184.34966 C 616.81445,184.34966 616.44726,184.31451 616.06445,184.24419 C 615.68555,184.17779 615.28516,184.07622 614.86328,183.93951 L 614.86328,182.82622 C 615.26172,183.03326 615.6543,183.18951 616.04102,183.29497 C 616.42773,183.39654 616.81054,183.44732 617.18945,183.44732 C 617.69726,183.44732 618.08789,183.36138 618.36133,183.18951 C 618.63476,183.01373 618.77148,182.76763 618.77148,182.45122 C 618.77148,182.15826 618.67187,181.93365 618.47266,181.7774 C 618.27734,181.62115 617.8457,181.47076 617.17773,181.32622 L 616.80273,181.23833 C 616.13476,181.09771 615.65234,180.88287 615.35547,180.5938 C 615.05859,180.30084 614.91016,179.90045 614.91016,179.39263 C 614.91016,178.77545 615.12891,178.29889 615.56641,177.96294 C 616.0039,177.62701 616.625,177.45904 617.42969,177.45904 C 617.82812,177.45904 618.20312,177.48834 618.55469,177.54693 C 618.90625,177.60553 619.23046,177.69342 619.52734,177.8106 M 624.79492,177.61724 L 625.87305,177.61724 L 627.2207,182.73833 L 628.5625,177.61724 L 629.83398,177.61724 L 631.18164,182.73833 L 632.52344,177.61724 L 633.60156,177.61724 L 631.88477,184.17974 L 630.61328,184.17974 L 629.20117,178.80083 L 627.7832,184.17974 L 626.51172,184.17974 L 624.79492,177.61724 M 635.24219,177.61724 L 636.32031,177.61724 L 636.32031,184.17974 L 635.24219,184.17974 L 635.24219,177.61724 M 635.24219,175.06255 L 636.32031,175.06255 L 636.32031,176.42779 L 635.24219,176.42779 L 635.24219,175.06255 M 639.63672,175.75396 L 639.63672,177.61724 L 641.85742,177.61724 L 641.85742,178.45513 L 639.63672,178.45513 L 639.63672,182.01763 C 639.63672,182.55279 639.70898,182.89654 639.85352,183.04888 C 640.00195,183.20123 640.30078,183.2774 640.75,183.2774 L 641.85742,183.2774 L 641.85742,184.17974 L 640.75,184.17974 C 639.91797,184.17974 639.34375,184.02544 639.02734,183.71685 C 638.71094,183.40435 638.55273,182.83794 638.55273,182.01763 L 638.55273,178.45513 L 637.76172,178.45513 L 637.76172,177.61724 L 638.55273,177.61724 L 638.55273,175.75396 L 639.63672,175.75396 M 648.73633,180.2188 L 648.73633,184.17974 L 647.6582,184.17974 L 647.6582,180.25396 C 647.6582,179.63287 647.5371,179.16803 647.29492,178.85943 C 647.05273,178.55084 646.68945,178.39654 646.20508,178.39654 C 645.62304,178.39654 645.16406,178.58209 644.82812,178.95318 C 644.49219,179.32428 644.32422,179.83013 644.32422,180.47076 L 644.32422,184.17974 L 643.24023,184.17974 L 643.24023,175.06255 L 644.32422,175.06255 L 644.32422,178.63677 C 644.58203,178.24225 644.88476,177.94732 645.23242,177.75201 C 645.58398,177.5567 645.98828,177.45904 646.44531,177.45904 C 647.19921,177.45904 647.76953,177.69342 648.15625,178.16216 C 648.54296,178.62701 648.73632,179.31256 648.73633,180.2188 M 657.70117,180.88091 C 656.83007,180.88092 656.22656,180.98052 655.89062,181.17974 C 655.55469,181.37896 655.38672,181.7188 655.38672,182.19927 C 655.38672,182.58209 655.51172,182.88677 655.76172,183.11333 C 656.01562,183.33599 656.35937,183.44732 656.79297,183.44732 C 657.39062,183.44732 657.86914,183.23638 658.22852,182.81451 C 658.59179,182.38873 658.77343,181.82427 658.77344,181.12115 L 658.77344,180.88091 L 657.70117,180.88091 M 659.85156,180.4356 L 659.85156,184.17974 L 658.77344,184.17974 L 658.77344,183.18365 C 658.52734,183.58208 658.2207,183.87701 657.85352,184.06841 C 657.48632,184.25591 657.03711,184.34966 656.50586,184.34966 C 655.83398,184.34966 655.29883,184.16216 654.90039,183.78716 C 654.50586,183.40826 654.30859,182.9024 654.30859,182.26958 C 654.30859,181.53131 654.55469,180.97467 655.04688,180.59966 C 655.54297,180.22467 656.28125,180.03717 657.26172,180.03716 L 658.77344,180.03716 L 658.77344,179.93169 C 658.77343,179.4356 658.60937,179.05279 658.28125,178.78326 C 657.95703,178.50982 657.5,178.37311 656.91016,178.3731 C 656.53515,178.37311 656.16992,178.41803 655.81445,178.50786 C 655.45898,178.59771 655.11719,178.73248 654.78906,178.91216 L 654.78906,177.91607 C 655.18359,177.76373 655.5664,177.65045 655.9375,177.57622 C 656.30859,177.49811 656.66992,177.45904 657.02148,177.45904 C 657.9707,177.45904 658.67968,177.70514 659.14844,178.19732 C 659.61718,178.68951 659.85156,179.4356 659.85156,180.4356 M 667.5332,180.2188 L 667.5332,184.17974 L 666.45508,184.17974 L 666.45508,180.25396 C 666.45507,179.63287 666.33398,179.16803 666.0918,178.85943 C 665.8496,178.55084 665.48632,178.39654 665.00195,178.39654 C 664.41992,178.39654 663.96093,178.58209 663.625,178.95318 C 663.28906,179.32428 663.12109,179.83013 663.12109,180.47076 L 663.12109,184.17974 L 662.03711,184.17974 L 662.03711,177.61724 L 663.12109,177.61724 L 663.12109,178.63677 C 663.3789,178.24225 663.68164,177.94732 664.0293,177.75201 C 664.38086,177.5567 664.78515,177.45904 665.24219,177.45904 C 665.99609,177.45904 666.5664,177.69342 666.95312,178.16216 C 667.33984,178.62701 667.5332,179.31256 667.5332,180.2188 M 536.86328,195.88091 C 535.99218,195.88092 535.38867,195.98052 535.05273,196.17974 C 534.71679,196.37896 534.54883,196.7188 534.54883,197.19927 C 534.54883,197.58209 534.67383,197.88677 534.92383,198.11333 C 535.17773,198.33599 535.52148,198.44732 535.95508,198.44732 C 536.55273,198.44732 537.03125,198.23638 537.39062,197.81451 C 537.7539,197.38873 537.93554,196.82427 537.93555,196.12115 L 537.93555,195.88091 L 536.86328,195.88091 M 539.01367,195.4356 L 539.01367,199.17974 L 537.93555,199.17974 L 537.93555,198.18365 C 537.68945,198.58208 537.38281,198.87701 537.01562,199.06841 C 536.64843,199.25591 536.19922,199.34966 535.66797,199.34966 C 534.99609,199.34966 534.46094,199.16216 534.0625,198.78716 C 533.66797,198.40826 533.4707,197.9024 533.4707,197.26958 C 533.4707,196.53131 533.7168,195.97467 534.20898,195.59966 C 534.70508,195.22467 535.44336,195.03717 536.42383,195.03716 L 537.93555,195.03716 L 537.93555,194.93169 C 537.93554,194.4356 537.77148,194.05279 537.44336,193.78326 C 537.11914,193.50982 536.66211,193.37311 536.07227,193.3731 C 535.69726,193.37311 535.33203,193.41803 534.97656,193.50786 C 534.62109,193.59771 534.2793,193.73248 533.95117,193.91216 L 533.95117,192.91607 C 534.3457,192.76373 534.72851,192.65045 535.09961,192.57622 C 535.4707,192.49811 535.83203,192.45904 536.18359,192.45904 C 537.13281,192.45904 537.84179,192.70514 538.31055,193.19732 C 538.77929,193.68951 539.01367,194.4356 539.01367,195.4356 M 542.30664,190.75396 L 542.30664,192.61724 L 544.52734,192.61724 L 544.52734,193.45513 L 542.30664,193.45513 L 542.30664,197.01763 C 542.30664,197.55279 542.3789,197.89654 542.52344,198.04888 C 542.67187,198.20123 542.9707,198.2774 543.41992,198.2774 L 544.52734,198.2774 L 544.52734,199.17974 L 543.41992,199.17974 C 542.58789,199.17974 542.01367,199.02544 541.69727,198.71685 C 541.38086,198.40435 541.22266,197.83794 541.22266,197.01763 L 541.22266,193.45513 L 540.43164,193.45513 L 540.43164,192.61724 L 541.22266,192.61724 L 541.22266,190.75396 L 542.30664,190.75396 M 551.06055,193.87701 C 551.33007,193.39264 551.65234,193.03521 552.02734,192.80474 C 552.40234,192.57428 552.84374,192.45904 553.35156,192.45904 C 554.03515,192.45904 554.56249,192.69928 554.93359,193.17974 C 555.30468,193.65631 555.49022,194.33599 555.49023,195.2188 L 555.49023,199.17974 L 554.40625,199.17974 L 554.40625,195.25396 C 554.40624,194.62506 554.29491,194.15826 554.07227,193.85357 C 553.8496,193.54889 553.50976,193.39654 553.05273,193.39654 C 552.49413,193.39654 552.05273,193.58209 551.72852,193.95318 C 551.40429,194.32428 551.24218,194.83013 551.24219,195.47076 L 551.24219,199.17974 L 550.1582,199.17974 L 550.1582,195.25396 C 550.1582,194.62115 550.04687,194.15435 549.82422,193.85357 C 549.60156,193.54889 549.25781,193.39654 548.79297,193.39654 C 548.24218,193.39654 547.80468,193.58404 547.48047,193.95904 C 547.15625,194.33014 546.99414,194.83404 546.99414,195.47076 L 546.99414,199.17974 L 545.91016,199.17974 L 545.91016,192.61724 L 546.99414,192.61724 L 546.99414,193.63677 C 547.24023,193.23443 547.53515,192.93756 547.87891,192.74615 C 548.22265,192.55475 548.63086,192.45904 549.10352,192.45904 C 549.58007,192.45904 549.98437,192.58014 550.31641,192.82232 C 550.65234,193.06451 550.90038,193.41607 551.06055,193.87701 M 560.18945,193.3731 C 559.61133,193.37311 559.15429,193.59967 558.81836,194.05279 C 558.48242,194.50201 558.31445,195.1192 558.31445,195.90435 C 558.31445,196.68951 558.48047,197.30865 558.8125,197.76177 C 559.14843,198.21099 559.60742,198.4356 560.18945,198.4356 C 560.76367,198.4356 561.21875,198.20904 561.55469,197.75591 C 561.89062,197.30279 562.05859,196.6856 562.05859,195.90435 C 562.05859,195.12701 561.89062,194.51178 561.55469,194.05865 C 561.21875,193.60162 560.76367,193.37311 560.18945,193.3731 M 560.18945,192.45904 C 561.12695,192.45904 561.86328,192.76373 562.39844,193.3731 C 562.93359,193.98248 563.20117,194.82623 563.20117,195.90435 C 563.20117,196.97857 562.93359,197.82232 562.39844,198.4356 C 561.86328,199.04497 561.12695,199.34966 560.18945,199.34966 C 559.24804,199.34966 558.50976,199.04497 557.97461,198.4356 C 557.44336,197.82232 557.17773,196.97857 557.17773,195.90435 C 557.17773,194.82623 557.44336,193.98248 557.97461,193.3731 C 558.50976,192.76373 559.24804,192.45904 560.18945,192.45904 M 569.16602,192.8106 L 569.16602,193.83013 C 568.86132,193.67389 568.54492,193.5567 568.2168,193.47857 C 567.88867,193.40045 567.54882,193.36139 567.19727,193.36138 C 566.66211,193.36139 566.25976,193.44342 565.99023,193.60747 C 565.72461,193.77154 565.5918,194.01764 565.5918,194.34576 C 565.5918,194.59576 565.6875,194.79303 565.87891,194.93755 C 566.07031,195.07818 566.45508,195.21295 567.0332,195.34185 L 567.40234,195.42388 C 568.16796,195.58795 568.71093,195.82037 569.03125,196.12115 C 569.35546,196.41802 569.51757,196.83404 569.51758,197.36919 C 569.51757,197.97857 569.27539,198.46099 568.79102,198.81646 C 568.31054,199.17193 567.64843,199.34966 566.80469,199.34966 C 566.45312,199.34966 566.08594,199.31451 565.70312,199.24419 C 565.32422,199.17779 564.92383,199.07622 564.50195,198.93951 L 564.50195,197.82622 C 564.90039,198.03326 565.29297,198.18951 565.67969,198.29497 C 566.0664,198.39654 566.44922,198.44732 566.82812,198.44732 C 567.33593,198.44732 567.72656,198.36138 568,198.18951 C 568.27343,198.01373 568.41015,197.76763 568.41016,197.45122 C 568.41015,197.15826 568.31054,196.93365 568.11133,196.7774 C 567.91601,196.62115 567.48437,196.47076 566.81641,196.32622 L 566.44141,196.23833 C 565.77344,196.09771 565.29101,195.88287 564.99414,195.5938 C 564.69726,195.30084 564.54883,194.90045 564.54883,194.39263 C 564.54883,193.77545 564.76758,193.29889 565.20508,192.96294 C 565.64258,192.62701 566.26367,192.45904 567.06836,192.45904 C 567.46679,192.45904 567.84179,192.48834 568.19336,192.54693 C 568.54492,192.60553 568.86914,192.69342 569.16602,192.8106 M 572.2832,198.19536 L 572.2832,201.67583 L 571.19922,201.67583 L 571.19922,192.61724 L 572.2832,192.61724 L 572.2832,193.61333 C 572.50976,193.22271 572.79492,192.93365 573.13867,192.74615 C 573.48632,192.55475 573.90039,192.45904 574.38086,192.45904 C 575.17773,192.45904 575.82421,192.77545 576.32031,193.40826 C 576.82031,194.04107 577.07031,194.8731 577.07031,195.90435 C 577.07031,196.9356 576.82031,197.76763 576.32031,198.40044 C 575.82421,199.03326 575.17773,199.34966 574.38086,199.34966 C 573.90039,199.34966 573.48632,199.25591 573.13867,199.06841 C 572.79492,198.87701 572.50976,198.58599 572.2832,198.19536 M 575.95117,195.90435 C 575.95117,195.11138 575.7871,194.49029 575.45898,194.04107 C 575.13476,193.58795 574.6875,193.36139 574.11719,193.36138 C 573.54687,193.36139 573.09765,193.58795 572.76953,194.04107 C 572.44531,194.49029 572.2832,195.11138 572.2832,195.90435 C 572.2832,196.69732 572.44531,197.32037 572.76953,197.77349 C 573.09765,198.22271 573.54687,198.44732 574.11719,198.44732 C 574.6875,198.44732 575.13476,198.22271 575.45898,197.77349 C 575.7871,197.32037 575.95117,196.69732 575.95117,195.90435 M 584.3125,195.2188 L 584.3125,199.17974 L 583.23438,199.17974 L 583.23438,195.25396 C 583.23437,194.63287 583.11328,194.16803 582.87109,193.85943 C 582.6289,193.55084 582.26562,193.39654 581.78125,193.39654 C 581.19922,193.39654 580.74023,193.58209 580.4043,193.95318 C 580.06836,194.32428 579.90039,194.83013 579.90039,195.47076 L 579.90039,199.17974 L 578.81641,199.17974 L 578.81641,190.06255 L 579.90039,190.06255 L 579.90039,193.63677 C 580.1582,193.24225 580.46093,192.94732 580.80859,192.75201 C 581.16015,192.5567 581.56445,192.45904 582.02148,192.45904 C 582.77539,192.45904 583.3457,192.69342 583.73242,193.16216 C 584.11913,193.62701 584.31249,194.31256 584.3125,195.2188 M 592.08789,195.62896 L 592.08789,196.1563 L 587.13086,196.1563 C 587.17773,196.89849 587.40039,197.4649 587.79883,197.85552 C 588.20117,198.24224 588.75976,198.4356 589.47461,198.4356 C 589.88867,198.4356 590.28906,198.38482 590.67578,198.28326 C 591.0664,198.18169 591.45312,198.02935 591.83594,197.82622 L 591.83594,198.84576 C 591.44921,199.00982 591.05273,199.13482 590.64648,199.22076 C 590.24023,199.30669 589.82812,199.34966 589.41016,199.34966 C 588.36328,199.34966 587.5332,199.04497 586.91992,198.4356 C 586.31055,197.82623 586.00586,197.00201 586.00586,195.96294 C 586.00586,194.88873 586.29492,194.03717 586.87305,193.40826 C 587.45508,192.77545 588.23828,192.45904 589.22266,192.45904 C 590.10546,192.45904 590.80273,192.7442 591.31445,193.31451 C 591.83007,193.88092 592.08788,194.6524 592.08789,195.62896 M 591.00977,195.31255 C 591.00195,194.72271 590.83593,194.25201 590.51172,193.90044 C 590.1914,193.54889 589.76562,193.37311 589.23438,193.3731 C 588.63281,193.37311 588.15039,193.54303 587.78711,193.88286 C 587.42773,194.22271 587.2207,194.70123 587.16602,195.31841 L 591.00977,195.31255 M 597.66016,193.62505 C 597.53906,193.55475 597.40625,193.50396 597.26172,193.47271 C 597.12109,193.43756 596.96484,193.41998 596.79297,193.41997 C 596.18359,193.41998 595.71484,193.6192 595.38672,194.01763 C 595.0625,194.41217 594.90039,194.98053 594.90039,195.72271 L 594.90039,199.17974 L 593.81641,199.17974 L 593.81641,192.61724 L 594.90039,192.61724 L 594.90039,193.63677 C 595.12695,193.23834 595.42187,192.94342 595.78516,192.75201 C 596.14843,192.5567 596.58984,192.45904 597.10938,192.45904 C 597.18359,192.45904 597.26562,192.4649 597.35547,192.47661 C 597.44531,192.48443 597.54492,192.49811 597.6543,192.51763 L 597.66016,193.62505 M 604.1582,195.62896 L 604.1582,196.1563 L 599.20117,196.1563 C 599.24805,196.89849 599.4707,197.4649 599.86914,197.85552 C 600.27148,198.24224 600.83007,198.4356 601.54492,198.4356 C 601.95898,198.4356 602.35937,198.38482 602.74609,198.28326 C 603.13671,198.18169 603.52343,198.02935 603.90625,197.82622 L 603.90625,198.84576 C 603.51953,199.00982 603.12304,199.13482 602.7168,199.22076 C 602.31054,199.30669 601.89843,199.34966 601.48047,199.34966 C 600.43359,199.34966 599.60351,199.04497 598.99023,198.4356 C 598.38086,197.82623 598.07617,197.00201 598.07617,195.96294 C 598.07617,194.88873 598.36523,194.03717 598.94336,193.40826 C 599.52539,192.77545 600.30859,192.45904 601.29297,192.45904 C 602.17578,192.45904 602.87304,192.7442 603.38477,193.31451 C 603.90038,193.88092 604.1582,194.6524 604.1582,195.62896 M 603.08008,195.31255 C 603.07226,194.72271 602.90624,194.25201 602.58203,193.90044 C 602.26171,193.54889 601.83593,193.37311 601.30469,193.3731 C 600.70312,193.37311 600.2207,193.54303 599.85742,193.88286 C 599.49804,194.22271 599.29101,194.70123 599.23633,195.31841 L 603.08008,195.31255 M 614.85742,193.87701 C 615.12695,193.39264 615.44921,193.03521 615.82422,192.80474 C 616.19921,192.57428 616.64062,192.45904 617.14844,192.45904 C 617.83202,192.45904 618.35937,192.69928 618.73047,193.17974 C 619.10155,193.65631 619.2871,194.33599 619.28711,195.2188 L 619.28711,199.17974 L 618.20312,199.17974 L 618.20312,195.25396 C 618.20312,194.62506 618.09179,194.15826 617.86914,193.85357 C 617.64648,193.54889 617.30663,193.39654 616.84961,193.39654 C 616.29101,193.39654 615.8496,193.58209 615.52539,193.95318 C 615.20117,194.32428 615.03906,194.83013 615.03906,195.47076 L 615.03906,199.17974 L 613.95508,199.17974 L 613.95508,195.25396 C 613.95507,194.62115 613.84374,194.15435 613.62109,193.85357 C 613.39843,193.54889 613.05468,193.39654 612.58984,193.39654 C 612.03906,193.39654 611.60156,193.58404 611.27734,193.95904 C 610.95312,194.33014 610.79101,194.83404 610.79102,195.47076 L 610.79102,199.17974 L 609.70703,199.17974 L 609.70703,192.61724 L 610.79102,192.61724 L 610.79102,193.63677 C 611.03711,193.23443 611.33203,192.93756 611.67578,192.74615 C 612.01953,192.55475 612.42773,192.45904 612.90039,192.45904 C 613.37695,192.45904 613.78124,192.58014 614.11328,192.82232 C 614.44921,193.06451 614.69726,193.41607 614.85742,193.87701 M 623.98633,193.3731 C 623.4082,193.37311 622.95117,193.59967 622.61523,194.05279 C 622.27929,194.50201 622.11133,195.1192 622.11133,195.90435 C 622.11133,196.68951 622.27734,197.30865 622.60938,197.76177 C 622.94531,198.21099 623.40429,198.4356 623.98633,198.4356 C 624.56054,198.4356 625.01562,198.20904 625.35156,197.75591 C 625.68749,197.30279 625.85546,196.6856 625.85547,195.90435 C 625.85546,195.12701 625.68749,194.51178 625.35156,194.05865 C 625.01562,193.60162 624.56054,193.37311 623.98633,193.3731 M 623.98633,192.45904 C 624.92382,192.45904 625.66015,192.76373 626.19531,193.3731 C 626.73046,193.98248 626.99804,194.82623 626.99805,195.90435 C 626.99804,196.97857 626.73046,197.82232 626.19531,198.4356 C 625.66015,199.04497 624.92382,199.34966 623.98633,199.34966 C 623.04492,199.34966 622.30664,199.04497 621.77148,198.4356 C 621.24023,197.82232 620.97461,196.97857 620.97461,195.90435 C 620.97461,194.82623 621.24023,193.98248 621.77148,193.3731 C 622.30664,192.76373 623.04492,192.45904 623.98633,192.45904 M 628.7793,190.06255 L 629.85742,190.06255 L 629.85742,199.17974 L 628.7793,199.17974 L 628.7793,190.06255 M 637.7207,195.62896 L 637.7207,196.1563 L 632.76367,196.1563 C 632.81055,196.89849 633.0332,197.4649 633.43164,197.85552 C 633.83398,198.24224 634.39257,198.4356 635.10742,198.4356 C 635.52148,198.4356 635.92187,198.38482 636.30859,198.28326 C 636.69921,198.18169 637.08593,198.02935 637.46875,197.82622 L 637.46875,198.84576 C 637.08203,199.00982 636.68554,199.13482 636.2793,199.22076 C 635.87304,199.30669 635.46093,199.34966 635.04297,199.34966 C 633.99609,199.34966 633.16601,199.04497 632.55273,198.4356 C 631.94336,197.82623 631.63867,197.00201 631.63867,195.96294 C 631.63867,194.88873 631.92773,194.03717 632.50586,193.40826 C 633.08789,192.77545 633.87109,192.45904 634.85547,192.45904 C 635.73828,192.45904 636.43554,192.7442 636.94727,193.31451 C 637.46288,193.88092 637.7207,194.6524 637.7207,195.62896 M 636.64258,195.31255 C 636.63476,194.72271 636.46874,194.25201 636.14453,193.90044 C 635.82421,193.54889 635.39843,193.37311 634.86719,193.3731 C 634.26562,193.37311 633.7832,193.54303 633.41992,193.88286 C 633.06054,194.22271 632.85351,194.70123 632.79883,195.31841 L 636.64258,195.31255 M 644.21289,192.86919 L 644.21289,193.87701 C 643.9082,193.70904 643.60156,193.58404 643.29297,193.50201 C 642.98828,193.41607 642.67968,193.37311 642.36719,193.3731 C 641.66797,193.37311 641.125,193.59576 640.73828,194.04107 C 640.35156,194.48248 640.1582,195.10357 640.1582,195.90435 C 640.1582,196.70513 640.35156,197.32818 640.73828,197.77349 C 641.125,198.2149 641.66797,198.4356 642.36719,198.4356 C 642.67968,198.4356 642.98828,198.39458 643.29297,198.31255 C 643.60156,198.22662 643.9082,198.09966 644.21289,197.93169 L 644.21289,198.92779 C 643.9121,199.06841 643.5996,199.17388 643.27539,199.24419 C 642.95507,199.31451 642.61328,199.34966 642.25,199.34966 C 641.26172,199.34966 640.47656,199.03912 639.89453,198.41802 C 639.3125,197.79693 639.02148,196.95904 639.02148,195.90435 C 639.02148,194.83404 639.31445,193.99225 639.90039,193.37896 C 640.49023,192.76568 641.29687,192.45904 642.32031,192.45904 C 642.65234,192.45904 642.97656,192.4942 643.29297,192.56451 C 643.60937,192.63092 643.91601,192.73248 644.21289,192.86919 M 645.98828,196.5899 L 645.98828,192.61724 L 647.06641,192.61724 L 647.06641,196.54888 C 647.0664,197.16998 647.1875,197.63677 647.42969,197.94927 C 647.67187,198.25787 648.03515,198.41216 648.51953,198.41216 C 649.10156,198.41216 649.56054,198.22662 649.89648,197.85552 C 650.23632,197.48443 650.40624,196.97857 650.40625,196.33794 L 650.40625,192.61724 L 651.48438,192.61724 L 651.48438,199.17974 L 650.40625,199.17974 L 650.40625,198.17193 C 650.14453,198.57037 649.83984,198.86724 649.49219,199.06255 C 649.14843,199.25396 648.74804,199.34966 648.29102,199.34966 C 647.53711,199.34966 646.96484,199.11529 646.57422,198.64654 C 646.18359,198.17779 645.98828,197.49224 645.98828,196.5899 M 653.7168,190.06255 L 654.79492,190.06255 L 654.79492,199.17974 L 653.7168,199.17974 L 653.7168,190.06255 M 662.6582,195.62896 L 662.6582,196.1563 L 657.70117,196.1563 C 657.74805,196.89849 657.9707,197.4649 658.36914,197.85552 C 658.77148,198.24224 659.33007,198.4356 660.04492,198.4356 C 660.45898,198.4356 660.85937,198.38482 661.24609,198.28326 C 661.63671,198.18169 662.02343,198.02935 662.40625,197.82622 L 662.40625,198.84576 C 662.01953,199.00982 661.62304,199.13482 661.2168,199.22076 C 660.81054,199.30669 660.39843,199.34966 659.98047,199.34966 C 658.93359,199.34966 658.10351,199.04497 657.49023,198.4356 C 656.88086,197.82623 656.57617,197.00201 656.57617,195.96294 C 656.57617,194.88873 656.86523,194.03717 657.44336,193.40826 C 658.02539,192.77545 658.80859,192.45904 659.79297,192.45904 C 660.67578,192.45904 661.37304,192.7442 661.88477,193.31451 C 662.40038,193.88092 662.6582,194.6524 662.6582,195.62896 M 661.58008,195.31255 C 661.57226,194.72271 661.40624,194.25201 661.08203,193.90044 C 660.76171,193.54889 660.33593,193.37311 659.80469,193.3731 C 659.20312,193.37311 658.7207,193.54303 658.35742,193.88286 C 657.99804,194.22271 657.79101,194.70123 657.73633,195.31841 L 661.58008,195.31255 M 664.58008,197.69146 L 665.81641,197.69146 L 665.81641,199.17974 L 664.58008,199.17974 L 664.58008,197.69146"
     id="flowRoot5096" />
  <path
     style="fill:none;fill-opacity:0.75;fill-rule:evenodd;stroke:#000000;stroke-width:1px;stroke-linecap:butt;stroke-linejoin:miter;stroke-opacity:1;marker-start:url(#Arrow1Lstart);marker-end:none"
     d="M 418.9072,157.63833 L 521.81266,123.03296"
     id="path5106" />
  <path
     style="fill:none;fill-opacity:0.75;fill-rule:evenodd;stroke:#000000;stroke-width:1px;stroke-linecap:butt;stroke-linejoin:miter;stroke-opacity:1"
     d="M 405.24718,162.19167 L 244.05898,269.65048 L 192.15091,358.89592"
     id="path6278" />
  <path
     style="fill:none;fill-opacity:0.75;fill-rule:evenodd;stroke:#000000;stroke-width:1px;stroke-linecap:butt;stroke-linejoin:miter;stroke-opacity:1"
     d="M 243.14831,268.73981 L 262.27233,306.07719"
     id="path6280" />
  <path
     style="fill:none;fill-opacity:0.75;fill-rule:evenodd;stroke:#000000;stroke-width:1px;stroke-linecap:butt;stroke-linejoin:miter;stroke-opacity:1"
     d="M 406.75128,162.56415 L 423.46054,317.0052"
     id="path6282" />
  <path
     style="fill:none;fill-opacity:0.75;fill-rule:evenodd;stroke:#000000;stroke-width:1px;stroke-linecap:butt;stroke-linejoin:miter;stroke-opacity:1"
     d="M 407.11902,163.85203 L 465.35126,280.57849"
     id="path6284" />
  <path
     style="fill:none;fill-opacity:0.75;fill-rule:evenodd;stroke:#000000;stroke-width:1px;stroke-linecap:butt;stroke-linejoin:miter;stroke-opacity:1"
     d="M 407.60197,163.10234 L 569.16739,253.25846 L 639.28881,306.07719"
     id="path6286" />
  <path
     style="fill:none;fill-opacity:0.75;fill-rule:evenodd;stroke:#000000;stroke-width:1px;stroke-linecap:butt;stroke-linejoin:miter;stroke-opacity:1"
     d="M 569.16739,252.34779 L 568.25672,306.07719"
     id="path6288" />
  <path
     transform="matrix(2.8587565,0,0,2.8587565,-530.51358,-358.24917)"
     style="font-style:normal"
     d="M 290.91602,196.11138 L 289.84961,196.11138 L 289.23438,198.9649 C 289.17578,199.25396 289.13085,199.48834 289.09961,199.66802 C 289.07226,199.84771 289.05859,199.98052 289.05859,200.06646 C 289.05859,200.29302 289.10351,200.45513 289.19336,200.55279 C 289.2871,200.64654 289.4414,200.69341 289.65625,200.69341 C 289.72265,200.69341 289.80078,200.68951 289.89062,200.68169 C 289.98046,200.66998 290.09765,200.65435 290.24219,200.63482 L 290.06641,201.46099 C 289.94921,201.49224 289.83593,201.51568 289.72656,201.5313 C 289.62109,201.54693 289.51757,201.55474 289.41602,201.55474 C 288.95507,201.55474 288.60546,201.45513 288.36719,201.25591 C 288.13281,201.05669 288.01562,200.76177 288.01562,200.37115 C 288.01562,200.19146 288.03515,199.96099 288.07422,199.67974 C 288.11718,199.39849 288.20507,198.94341 288.33789,198.31451 L 288.80664,196.11138 L 286.89648,196.11138 L 285.75977,201.46099 L 284.69922,201.46099 L 285.8418,196.11138 L 285.60156,196.11138 C 285.39062,196.11139 285.22656,196.17389 285.10938,196.29888 C 284.99219,196.42389 284.91601,196.62115 284.88086,196.89068 L 283.94336,196.89068 C 284.05273,196.24225 284.24609,195.79693 284.52344,195.55474 C 284.80469,195.30865 285.26758,195.18561 285.91211,195.1856 L 291.12109,195.1856 L 290.91602,196.11138"
     id="flowRoot6291" />
  <path
     transform="translate(137.68951,-7.1066782)"
     style=""
     d="M 170.36328,204.87505 L 170.36328,208.13872 L 173.62695,208.13872 L 173.62695,209.13482 L 170.36328,209.13482 L 170.36328,212.39849 L 169.37891,212.39849 L 169.37891,209.13482 L 166.11523,209.13482 L 166.11523,208.13872 L 169.37891,208.13872 L 169.37891,204.87505 L 170.36328,204.87505"
     id="flowRoot6299" />
  <path
     transform="matrix(2.8587565,0,0,2.8587565,-335.7737,-384.72037)"
     style="font-style:normal"
     d="M 290.91602,196.11138 L 289.84961,196.11138 L 289.23438,198.9649 C 289.17578,199.25396 289.13085,199.48834 289.09961,199.66802 C 289.07226,199.84771 289.05859,199.98052 289.05859,200.06646 C 289.05859,200.29302 289.10351,200.45513 289.19336,200.55279 C 289.2871,200.64654 289.4414,200.69341 289.65625,200.69341 C 289.72265,200.69341 289.80078,200.68951 289.89062,200.68169 C 289.98046,200.66998 290.09765,200.65435 290.24219,200.63482 L 290.06641,201.46099 C 289.94921,201.49224 289.83593,201.51568 289.72656,201.5313 C 289.62109,201.54693 289.51757,201.55474 289.41602,201.55474 C 288.95507,201.55474 288.60546,201.45513 288.36719,201.25591 C 288.13281,201.05669 288.01562,200.76177 288.01562,200.37115 C 288.01562,200.19146 288.03515,199.96099 288.07422,199.67974 C 288.11718,199.39849 288.20507,198.94341 288.33789,198.31451 L 288.80664,196.11138 L 286.89648,196.11138 L 285.75977,201.46099 L 284.69922,201.46099 L 285.8418,196.11138 L 285.60156,196.11138 C 285.39062,196.11139 285.22656,196.17389 285.10938,196.29888 C 284.99219,196.42389 284.91601,196.62115 284.88086,196.89068 L 283.94336,196.89068 C 284.05273,196.24225 284.24609,195.79693 284.52344,195.55474 C 284.80469,195.30865 285.26758,195.18561 285.91211,195.1856 L 291.12109,195.1856 L 290.91602,196.11138"
     id="flowRoot6309" />
  <path
     transform="matrix(1.8155769,0,0,1.8155769,197.50875,-204.51615)"
     style=""
     d="M 165.42969,208.63091 L 168.58789,208.63091 L 168.58789,209.59185 L 165.42969,209.59185 L 165.42969,208.63091"
     id="flowRoot6317" />
  <path
     transform="matrix(2.8587565,0,0,2.8587565,-433.06477,-327.42913)"
     style="font-style:normal"
     d="M 290.91602,196.11138 L 289.84961,196.11138 L 289.23438,198.9649 C 289.17578,199.25396 289.13085,199.48834 289.09961,199.66802 C 289.07226,199.84771 289.05859,199.98052 289.05859,200.06646 C 289.05859,200.29302 289.10351,200.45513 289.19336,200.55279 C 289.2871,200.64654 289.4414,200.69341 289.65625,200.69341 C 289.72265,200.69341 289.80078,200.68951 289.89062,200.68169 C 289.98046,200.66998 290.09765,200.65435 290.24219,200.63482 L 290.06641,201.46099 C 289.94921,201.49224 289.83593,201.51568 289.72656,201.5313 C 289.62109,201.54693 289.51757,201.55474 289.41602,201.55474 C 288.95507,201.55474 288.60546,201.45513 288.36719,201.25591 C 288.13281,201.05669 288.01562,200.76177 288.01562,200.37115 C 288.01562,200.19146 288.03515,199.96099 288.07422,199.67974 C 288.11718,199.39849 288.20507,198.94341 288.33789,198.31451 L 288.80664,196.11138 L 286.89648,196.11138 L 285.75977,201.46099 L 284.69922,201.46099 L 285.8418,196.11138 L 285.60156,196.11138 C 285.39062,196.11139 285.22656,196.17389 285.10938,196.29888 C 284.99219,196.42389 284.91601,196.62115 284.88086,196.89068 L 283.94336,196.89068 C 284.05273,196.24225 284.24609,195.79693 284.52344,195.55474 C 284.80469,195.30865 285.26758,195.18561 285.91211,195.1856 L 291.12109,195.1856 L 290.91602,196.11138"
     id="flowRoot6325" />
  <path
     transform="matrix(1.4963093,0,0,1.4963093,152.45555,-81.934468)"
     style=""
     d="M 168.6582,204.42974 C 168.04882,204.42975 167.58984,204.73053 167.28125,205.33208 C 166.97656,205.92975 166.82422,206.83014 166.82422,208.03326 C 166.82422,209.23248 166.97656,210.13287 167.28125,210.73443 C 167.58984,211.33208 168.04882,211.63091 168.6582,211.63091 C 169.27148,211.63091 169.73046,211.33208 170.03516,210.73443 C 170.34374,210.13287 170.49804,209.23248 170.49805,208.03326 C 170.49804,206.83014 170.34374,205.92975 170.03516,205.33208 C 169.73046,204.73053 169.27148,204.42975 168.6582,204.42974 M 168.6582,203.49224 C 169.63867,203.49225 170.38671,203.88092 170.90234,204.65826 C 171.42187,205.4317 171.68163,206.5567 171.68164,208.03326 C 171.68163,209.50591 171.42187,210.63091 170.90234,211.40826 C 170.38671,212.18169 169.63867,212.56841 168.6582,212.56841 C 167.67773,212.56841 166.92773,212.18169 166.4082,211.40826 C 165.89258,210.63091 165.63476,209.50591 165.63477,208.03326 C 165.63476,206.5567 165.89258,205.4317 166.4082,204.65826 C 166.92773,203.88092 167.67773,203.49225 168.6582,203.49224"
     id="flowRoot6333" />
  <path
     transform="matrix(2.8587565,0,0,2.8587565,-623.69856,-274.60023)"
     style="font-style:italic"
     d="M 283.9668,203.95708 L 285.73047,194.89849 L 286.81445,194.89849 L 286.01758,198.98247 C 286.00195,199.06451 285.98828,199.1563 285.97656,199.25786 C 285.96484,199.35943 285.95898,199.46099 285.95898,199.56255 C 285.95898,199.92584 286.07226,200.20513 286.29883,200.40044 C 286.52929,200.59576 286.85742,200.69341 287.2832,200.69341 C 287.86132,200.69341 288.32812,200.52935 288.68359,200.20122 C 289.03906,199.8731 289.27929,199.38091 289.4043,198.72466 L 290.14844,194.89849 L 291.22656,194.89849 L 290.24805,199.94341 C 290.23242,200.01763 290.2207,200.08209 290.21289,200.13677 C 290.20898,200.19146 290.20703,200.24029 290.20703,200.28326 C 290.20703,200.40435 290.23046,200.49419 290.27734,200.55279 C 290.32812,200.60748 290.40624,200.63482 290.51172,200.63482 C 290.55077,200.63482 290.60351,200.62505 290.66992,200.60552 C 290.74023,200.58599 290.83788,200.55083 290.96289,200.50005 L 290.79883,201.36724 C 290.62695,201.45318 290.46288,201.51763 290.30664,201.5606 C 290.15038,201.60747 289.99804,201.63091 289.84961,201.63091 C 289.59179,201.63091 289.38867,201.54888 289.24023,201.38482 C 289.0957,201.22076 289.02343,200.99419 289.02344,200.70513 C 288.80468,201.01763 288.54296,201.25005 288.23828,201.4024 C 287.9375,201.55474 287.58203,201.63091 287.17188,201.63091 C 286.80859,201.63091 286.49023,201.54693 286.2168,201.37896 C 285.94726,201.21099 285.76953,200.99029 285.68359,200.71685 L 285.05078,203.95708 L 283.9668,203.95708"
     id="flowRoot6345" />
  <path
     transform="translate(44.504531,76.542263)"
     style=""
     d="M 170.36328,204.87505 L 170.36328,208.13872 L 173.62695,208.13872 L 173.62695,209.13482 L 170.36328,209.13482 L 170.36328,212.39849 L 169.37891,212.39849 L 169.37891,209.13482 L 166.11523,209.13482 L 166.11523,208.13872 L 169.37891,208.13872 L 169.37891,204.87505 L 170.36328,204.87505"
     id="flowRoot6353" />
  <path
     transform="matrix(2.8587565,0,0,2.8587565,-209.27311,-314.74514)"
     style="font-style:italic"
     d="M 283.9668,203.95708 L 285.73047,194.89849 L 286.81445,194.89849 L 286.01758,198.98247 C 286.00195,199.06451 285.98828,199.1563 285.97656,199.25786 C 285.96484,199.35943 285.95898,199.46099 285.95898,199.56255 C 285.95898,199.92584 286.07226,200.20513 286.29883,200.40044 C 286.52929,200.59576 286.85742,200.69341 287.2832,200.69341 C 287.86132,200.69341 288.32812,200.52935 288.68359,200.20122 C 289.03906,199.8731 289.27929,199.38091 289.4043,198.72466 L 290.14844,194.89849 L 291.22656,194.89849 L 290.24805,199.94341 C 290.23242,200.01763 290.2207,200.08209 290.21289,200.13677 C 290.20898,200.19146 290.20703,200.24029 290.20703,200.28326 C 290.20703,200.40435 290.23046,200.49419 290.27734,200.55279 C 290.32812,200.60748 290.40624,200.63482 290.51172,200.63482 C 290.55077,200.63482 290.60351,200.62505 290.66992,200.60552 C 290.74023,200.58599 290.83788,200.55083 290.96289,200.50005 L 290.79883,201.36724 C 290.62695,201.45318 290.46288,201.51763 290.30664,201.5606 C 290.15038,201.60747 289.99804,201.63091 289.84961,201.63091 C 289.59179,201.63091 289.38867,201.54888 289.24023,201.38482 C 289.0957,201.22076 289.02343,200.99419 289.02344,200.70513 C 288.80468,201.01763 288.54296,201.25005 288.23828,201.4024 C 287.9375,201.55474 287.58203,201.63091 287.17188,201.63091 C 286.80859,201.63091 286.49023,201.54693 286.2168,201.37896 C 285.94726,201.21099 285.76953,200.99029 285.68359,200.71685 L 285.05078,203.95708 L 283.9668,203.95708"
     id="flowRoot6361" />
  <path
     transform="matrix(2.3402316,0,0,2.3402316,237.21589,-244.50426)"
     style=""
     d="M 165.42969,208.63091 L 168.58789,208.63091 L 168.58789,209.59185 L 165.42969,209.59185 L 165.42969,208.63091"
     id="flowRoot6369" />
  <path
     transform="matrix(2.8587565,0,0,2.8587565,-356.60069,-332.70639)"
     style="font-style:italic"
     d="M 290.81055,197.50005 L 290.04297,201.46099 L 288.95898,201.46099 L 289.72656,197.54107 C 289.76171,197.35748 289.78906,197.19537 289.80859,197.05474 C 289.82812,196.91412 289.83788,196.80279 289.83789,196.72076 C 289.83788,196.39264 289.73437,196.13678 289.52734,195.95318 C 289.32031,195.76959 289.03125,195.67779 288.66016,195.67779 C 288.08203,195.67779 287.58398,195.87115 287.16602,196.25786 C 286.74804,196.64068 286.47461,197.16217 286.3457,197.82232 L 285.625,201.46099 L 284.54688,201.46099 L 285.81836,194.89849 L 286.89648,194.89849 L 286.67969,195.92974 C 286.98047,195.55084 287.34179,195.25787 287.76367,195.05083 C 288.18554,194.84381 288.6289,194.74029 289.09375,194.74029 C 289.67187,194.74029 290.11913,194.89654 290.43555,195.20904 C 290.75585,195.52154 290.91601,195.961 290.91602,196.5274 C 290.91601,196.66803 290.90624,196.81842 290.88672,196.97857 C 290.87109,197.13873 290.8457,197.31256 290.81055,197.50005"
     id="flowRoot6378" />
  <path
     style="fill:none;fill-opacity:0.75;fill-rule:evenodd;stroke:#000000;stroke-width:1px;stroke-linecap:butt;stroke-linejoin:miter;stroke-opacity:1"
     d="M 424.14353,315.86687 C 424.14353,315.86687 390.5155,313.79609 388.39983,317.46054 C 384.03196,325.02592 403.88151,336.35657 398.87251,341.36557 C 394.73847,345.49961 370.63546,332.94091 368.13747,337.26756 C 365.71675,341.46037 379.97615,366.6366 379.97615,366.6366"
     id="path6404" />
  <path
     style="fill:none;fill-opacity:0.75;fill-rule:evenodd;stroke:#000000;stroke-width:1px;stroke-linecap:butt;stroke-linejoin:miter;stroke-opacity:1"
     d="M 345.14311,391.90763 L 379.52082,366.6366 L 394.7745,402.15265"
     id="path6406" />
  <path
     style="fill:none;fill-opacity:0.75;fill-rule:evenodd;stroke:#000000;stroke-width:1px;stroke-linecap:butt;stroke-linejoin:miter;stroke-opacity:1"
     d="M 423.78539,316.37542 C 423.78539,316.37542 418.96181,350.61188 421.20728,351.9083 C 428.77266,356.27617 447.85075,333.98524 452.7826,339.07022 C 456.85297,343.26697 440.73999,370.59021 445.02795,373.15404 C 449.18327,375.63857 478.44485,360.17198 478.44485,360.17198"
     id="path6411" />
  <path
     style="fill:none;fill-opacity:0.75;fill-rule:evenodd;stroke:#000000;stroke-width:1px;stroke-linecap:butt;stroke-linejoin:miter;stroke-opacity:1"
     d="M 478.32828,414.67433 L 478.32828,360.26193 L 514.52732,396.46097"
     id="path6414" />
  <path
     transform="matrix(2.8587565,0,0,2.8587565,-446.33414,-262.15316)"
     style="font-style:italic"
     d="M 286.91992,195.92974 L 287.57031,199.98443 L 290.60547,194.89849 L 291.74805,194.89849 L 287.82227,201.46099 L 287.33594,203.95708 L 286.25781,203.95708 L 286.74414,201.46099 L 285.97656,196.56255 C 285.89844,196.07037 285.67383,195.82428 285.30273,195.82427 L 285.01562,195.82427 L 285.19141,194.89849 L 285.60156,194.89849 C 286.37109,194.8985 286.81054,195.24225 286.91992,195.92974"
     id="flowRoot6416" />
  <path
     transform="matrix(2.8587565,0,0,2.8587565,-356.33018,-245.36961)"
     style="font-style:italic"
     d="M 286.91992,195.92974 L 287.57031,199.98443 L 290.60547,194.89849 L 291.74805,194.89849 L 287.82227,201.46099 L 287.33594,203.95708 L 286.25781,203.95708 L 286.74414,201.46099 L 285.97656,196.56255 C 285.89844,196.07037 285.67383,195.82428 285.30273,195.82427 L 285.01562,195.82427 L 285.19141,194.89849 L 285.60156,194.89849 C 286.37109,194.8985 286.81054,195.24225 286.91992,195.92974"
     id="flowRoot6424" />
  <path
     transform="matrix(2.8587565,0,0,2.8587565,-284.76435,-274.54212)"
     style="font-style:italic"
     d="M 284.98633,194.89849 L 286.12891,194.89849 L 287.08984,200.47661 L 290.23047,194.89849 L 291.37305,194.89849 L 287.64062,201.46099 L 286.1875,201.46099 L 284.98633,194.89849"
     id="flowRoot6432" />
  <path
     transform="matrix(1.4963093,0,0,1.4963093,298.70697,-11.061772)"
     style="font-style:italic"
     d="M 164.68555,214.89458 L 166.44922,205.83599 L 167.5332,205.83599 L 166.73633,209.91997 C 166.7207,210.00201 166.70703,210.0938 166.69531,210.19536 C 166.68359,210.29693 166.67773,210.39849 166.67773,210.50005 C 166.67773,210.86334 166.79101,211.14263 167.01758,211.33794 C 167.24804,211.53326 167.57617,211.63091 168.00195,211.63091 C 168.58007,211.63091 169.04687,211.46685 169.40234,211.13872 C 169.75781,210.8106 169.99804,210.31841 170.12305,209.66216 L 170.86719,205.83599 L 171.94531,205.83599 L 170.9668,210.88091 C 170.95117,210.95513 170.93945,211.01959 170.93164,211.07427 C 170.92773,211.12896 170.92578,211.17779 170.92578,211.22076 C 170.92578,211.34185 170.94921,211.43169 170.99609,211.49029 C 171.04687,211.54498 171.12499,211.57232 171.23047,211.57232 C 171.26952,211.57232 171.32226,211.56255 171.38867,211.54302 C 171.45898,211.52349 171.55663,211.48833 171.68164,211.43755 L 171.51758,212.30474 C 171.3457,212.39068 171.18163,212.45513 171.02539,212.4981 C 170.86913,212.54497 170.71679,212.56841 170.56836,212.56841 C 170.31054,212.56841 170.10742,212.48638 169.95898,212.32232 C 169.81445,212.15826 169.74218,211.93169 169.74219,211.64263 C 169.52343,211.95513 169.26171,212.18755 168.95703,212.3399 C 168.65625,212.49224 168.30078,212.56841 167.89062,212.56841 C 167.52734,212.56841 167.20898,212.48443 166.93555,212.31646 C 166.66601,212.14849 166.48828,211.92779 166.40234,211.65435 L 165.76953,214.89458 L 164.68555,214.89458"
     id="flowRoot6440" />
  <path
     style="fill:none;fill-opacity:0.75;fill-rule:evenodd;stroke:#000000;stroke-width:1px;stroke-linecap:butt;stroke-linejoin:miter;stroke-opacity:1"
     d="M 530.69168,277.39115 L 543.89636,277.39115"
     id="path6448" />
  <path
     transform="matrix(1.6144537,0,0,1.6144537,-204.98992,-231.34545)"
     style="font-style:italic"
     d="M 338.83398,372.4688 C 338.8457,372.40631 338.85351,372.34185 338.85742,372.27544 C 338.86523,372.20904 338.86913,372.14263 338.86914,372.07622 C 338.86913,371.59967 338.72851,371.22271 338.44727,370.94536 C 338.16992,370.66803 337.79101,370.52936 337.31055,370.52935 C 336.77539,370.52936 336.30273,370.69928 335.89258,371.03911 C 335.48242,371.37506 335.17187,371.85357 334.96094,372.47466 L 338.83398,372.4688 M 339.77148,373.31255 L 334.75586,373.31255 C 334.73242,373.46099 334.7168,373.57818 334.70898,373.66411 C 334.70117,373.75006 334.69726,373.82427 334.69727,373.88677 C 334.69726,374.42974 334.86328,374.84966 335.19531,375.14654 C 335.53125,375.44341 336.0039,375.59185 336.61328,375.59185 C 337.08203,375.59185 337.52539,375.53912 337.94336,375.43365 C 338.36132,375.32818 338.74999,375.17388 339.10938,374.97076 L 338.9043,376.03716 C 338.51757,376.19341 338.11718,376.3106 337.70312,376.38872 C 337.29296,376.46685 336.875,376.50591 336.44922,376.50591 C 335.53906,376.50591 334.83789,376.28911 334.3457,375.85552 C 333.85742,375.41802 333.61328,374.79888 333.61328,373.9981 C 333.61328,373.31451 333.73437,372.67974 333.97656,372.0938 C 334.22266,371.50396 334.58203,370.97857 335.05469,370.51763 C 335.35937,370.22857 335.7207,370.00592 336.13867,369.84966 C 336.56054,369.69342 337.00781,369.61529 337.48047,369.61529 C 338.22265,369.61529 338.81249,369.83795 339.25,370.28326 C 339.6914,370.72857 339.9121,371.32623 339.91211,372.07622 C 339.9121,372.25592 339.90038,372.44928 339.87695,372.6563 C 339.85351,372.85943 339.81835,373.07818 339.77148,373.31255"
     id="flowRoot6450" />
  <path
     transform="matrix(1.8155769,0,0,1.8155769,43.064141,-16.663863)"
     style=""
     d="M 165.42969,208.63091 L 168.58789,208.63091 L 168.58789,209.59185 L 165.42969,209.59185 L 165.42969,208.63091"
     id="flowRoot6458" />
  <path
     transform="matrix(1.6144537,0,0,1.6144537,-85.345182,-208.06857)"
     style="font-style:italic"
     d="M 338.83398,372.4688 C 338.8457,372.40631 338.85351,372.34185 338.85742,372.27544 C 338.86523,372.20904 338.86913,372.14263 338.86914,372.07622 C 338.86913,371.59967 338.72851,371.22271 338.44727,370.94536 C 338.16992,370.66803 337.79101,370.52936 337.31055,370.52935 C 336.77539,370.52936 336.30273,370.69928 335.89258,371.03911 C 335.48242,371.37506 335.17187,371.85357 334.96094,372.47466 L 338.83398,372.4688 M 339.77148,373.31255 L 334.75586,373.31255 C 334.73242,373.46099 334.7168,373.57818 334.70898,373.66411 C 334.70117,373.75006 334.69726,373.82427 334.69727,373.88677 C 334.69726,374.42974 334.86328,374.84966 335.19531,375.14654 C 335.53125,375.44341 336.0039,375.59185 336.61328,375.59185 C 337.08203,375.59185 337.52539,375.53912 337.94336,375.43365 C 338.36132,375.32818 338.74999,375.17388 339.10938,374.97076 L 338.9043,376.03716 C 338.51757,376.19341 338.11718,376.3106 337.70312,376.38872 C 337.29296,376.46685 336.875,376.50591 336.44922,376.50591 C 335.53906,376.50591 334.83789,376.28911 334.3457,375.85552 C 333.85742,375.41802 333.61328,374.79888 333.61328,373.9981 C 333.61328,373.31451 333.73437,372.67974 333.97656,372.0938 C 334.22266,371.50396 334.58203,370.97857 335.05469,370.51763 C 335.35937,370.22857 335.7207,370.00592 336.13867,369.84966 C 336.56054,369.69342 337.00781,369.61529 337.48047,369.61529 C 338.22265,369.61529 338.81249,369.83795 339.25,370.28326 C 339.6914,370.72857 339.9121,371.32623 339.91211,372.07622 C 339.9121,372.25592 339.90038,372.44928 339.87695,372.6563 C 339.85351,372.85943 339.81835,373.07818 339.77148,373.31255"
     id="flowRoot6466" />
  <path
     transform="matrix(1.8155769,0,0,1.8155769,162.70888,6.6130133)"
     style=""
     d="M 165.42969,208.63091 L 168.58789,208.63091 L 168.58789,209.59185 L 165.42969,209.59185 L 165.42969,208.63091"
     id="flowRoot6474" />
  <path
     transform="matrix(1.6144537,0,0,1.6144537,-147.31961,-221.08178)"
     style="font-style:italic"
     d="M 338.83398,372.4688 C 338.8457,372.40631 338.85351,372.34185 338.85742,372.27544 C 338.86523,372.20904 338.86913,372.14263 338.86914,372.07622 C 338.86913,371.59967 338.72851,371.22271 338.44727,370.94536 C 338.16992,370.66803 337.79101,370.52936 337.31055,370.52935 C 336.77539,370.52936 336.30273,370.69928 335.89258,371.03911 C 335.48242,371.37506 335.17187,371.85357 334.96094,372.47466 L 338.83398,372.4688 M 339.77148,373.31255 L 334.75586,373.31255 C 334.73242,373.46099 334.7168,373.57818 334.70898,373.66411 C 334.70117,373.75006 334.69726,373.82427 334.69727,373.88677 C 334.69726,374.42974 334.86328,374.84966 335.19531,375.14654 C 335.53125,375.44341 336.0039,375.59185 336.61328,375.59185 C 337.08203,375.59185 337.52539,375.53912 337.94336,375.43365 C 338.36132,375.32818 338.74999,375.17388 339.10938,374.97076 L 338.9043,376.03716 C 338.51757,376.19341 338.11718,376.3106 337.70312,376.38872 C 337.29296,376.46685 336.875,376.50591 336.44922,376.50591 C 335.53906,376.50591 334.83789,376.28911 334.3457,375.85552 C 333.85742,375.41802 333.61328,374.79888 333.61328,373.9981 C 333.61328,373.31451 333.73437,372.67974 333.97656,372.0938 C 334.22266,371.50396 334.58203,370.97857 335.05469,370.51763 C 335.35937,370.22857 335.7207,370.00592 336.13867,369.84966 C 336.56054,369.69342 337.00781,369.61529 337.48047,369.61529 C 338.22265,369.61529 338.81249,369.83795 339.25,370.28326 C 339.6914,370.72857 339.9121,371.32623 339.91211,372.07622 C 339.9121,372.25592 339.90038,372.44928 339.87695,372.6563 C 339.85351,372.85943 339.81835,373.07818 339.77148,373.31255"
     id="flowRoot6482" />
  <path
     transform="matrix(1.6144537,0,0,1.6144537,-38.494803,-231.78213)"
     style="font-style:italic"
     d="M 338.83398,372.4688 C 338.8457,372.40631 338.85351,372.34185 338.85742,372.27544 C 338.86523,372.20904 338.86913,372.14263 338.86914,372.07622 C 338.86913,371.59967 338.72851,371.22271 338.44727,370.94536 C 338.16992,370.66803 337.79101,370.52936 337.31055,370.52935 C 336.77539,370.52936 336.30273,370.69928 335.89258,371.03911 C 335.48242,371.37506 335.17187,371.85357 334.96094,372.47466 L 338.83398,372.4688 M 339.77148,373.31255 L 334.75586,373.31255 C 334.73242,373.46099 334.7168,373.57818 334.70898,373.66411 C 334.70117,373.75006 334.69726,373.82427 334.69727,373.88677 C 334.69726,374.42974 334.86328,374.84966 335.19531,375.14654 C 335.53125,375.44341 336.0039,375.59185 336.61328,375.59185 C 337.08203,375.59185 337.52539,375.53912 337.94336,375.43365 C 338.36132,375.32818 338.74999,375.17388 339.10938,374.97076 L 338.9043,376.03716 C 338.51757,376.19341 338.11718,376.3106 337.70312,376.38872 C 337.29296,376.46685 336.875,376.50591 336.44922,376.50591 C 335.53906,376.50591 334.83789,376.28911 334.3457,375.85552 C 333.85742,375.41802 333.61328,374.79888 333.61328,373.9981 C 333.61328,373.31451 333.73437,372.67974 333.97656,372.0938 C 334.22266,371.50396 334.58203,370.97857 335.05469,370.51763 C 335.35937,370.22857 335.7207,370.00592 336.13867,369.84966 C 336.56054,369.69342 337.00781,369.61529 337.48047,369.61529 C 338.22265,369.61529 338.81249,369.83795 339.25,370.28326 C 339.6914,370.72857 339.9121,371.32623 339.91211,372.07622 C 339.9121,372.25592 339.90038,372.44928 339.87695,372.6563 C 339.85351,372.85943 339.81835,373.07818 339.77148,373.31255"
     id="flowRoot6490" />
  <path
     transform="matrix(1.057871,0,0,1.057871,227.21338,152.92308)"
     style=""
     d="M 170.36328,204.87505 L 170.36328,208.13872 L 173.62695,208.13872 L 173.62695,209.13482 L 170.36328,209.13482 L 170.36328,212.39849 L 169.37891,212.39849 L 169.37891,209.13482 L 166.11523,209.13482 L 166.11523,208.13872 L 169.37891,208.13872 L 169.37891,204.87505 L 170.36328,204.87505"
     id="flowRoot6498" />
  <path
     transform="matrix(1.057871,0,0,1.057871,334.82562,139.55114)"
     style=""
     d="M 170.36328,204.87505 L 170.36328,208.13872 L 173.62695,208.13872 L 173.62695,209.13482 L 170.36328,209.13482 L 170.36328,212.39849 L 169.37891,212.39849 L 169.37891,209.13482 L 166.11523,209.13482 L 166.11523,208.13872 L 169.37891,208.13872 L 169.37891,204.87505 L 170.36328,204.87505"
     id="flowRoot6506" />
</svg>
